<mxfile host="app.diagrams.net" agent="Mozilla/5.0 (Macintosh; Intel Mac OS X 10_15_7) AppleWebKit/537.36 (KHTML, like Gecko) Chrome/134.0.0.0 Safari/537.36" version="26.2.9">
  <diagram name="Page-1" id="fw_HwSV4kMs2ocKY94k7">
    <mxGraphModel dx="1512" dy="1080" grid="1" gridSize="10" guides="1" tooltips="1" connect="1" arrows="1" fold="1" page="1" pageScale="1" pageWidth="850" pageHeight="1100" math="0" shadow="0">
      <root>
        <mxCell id="0" />
        <mxCell id="1" parent="0" />
        <mxCell id="pEMfgVXBG00LeKvRpqXS-1" value="&lt;font face=&quot;Times New Roman&quot; style=&quot;color: rgb(0, 0, 0); font-size: 25px;&quot;&gt;&lt;span style=&quot;white-space: pre; background-color: rgb(255, 255, 255);&quot;&gt;P.soc&lt;/span&gt;&lt;/font&gt;" style="ellipse;whiteSpace=wrap;html=1;aspect=fixed;strokeWidth=1.5;" vertex="1" parent="1">
          <mxGeometry x="200" y="520" width="80" height="80" as="geometry" />
        </mxCell>
        <mxCell id="pEMfgVXBG00LeKvRpqXS-2" value="&lt;font face=&quot;Times New Roman&quot; style=&quot;font-size: 25px;&quot;&gt;PHQ&lt;/font&gt;&lt;div&gt;&lt;font face=&quot;Times New Roman&quot; style=&quot;font-size: 25px;&quot;&gt;sum&lt;/font&gt;&lt;/div&gt;" style="ellipse;whiteSpace=wrap;html=1;aspect=fixed;strokeWidth=1.5;" vertex="1" parent="1">
          <mxGeometry x="520" y="520" width="80" height="80" as="geometry" />
        </mxCell>
        <mxCell id="pEMfgVXBG00LeKvRpqXS-3" value="&lt;font style=&quot;font-size: 25px;&quot; face=&quot;Times New Roman&quot;&gt;S.fin&lt;/font&gt;" style="ellipse;whiteSpace=wrap;html=1;aspect=fixed;strokeWidth=1.5;" vertex="1" parent="1">
          <mxGeometry x="360" y="280" width="80" height="80" as="geometry" />
        </mxCell>
        <mxCell id="pEMfgVXBG00LeKvRpqXS-4" value="" style="endArrow=classic;html=1;rounded=0;exitX=0;exitY=1;exitDx=0;exitDy=0;strokeWidth=2;" edge="1" parent="1" source="pEMfgVXBG00LeKvRpqXS-3" target="pEMfgVXBG00LeKvRpqXS-1">
          <mxGeometry width="50" height="50" relative="1" as="geometry">
            <mxPoint x="400" y="530" as="sourcePoint" />
            <mxPoint x="450" y="480" as="targetPoint" />
          </mxGeometry>
        </mxCell>
        <mxCell id="pEMfgVXBG00LeKvRpqXS-5" value="" style="endArrow=classic;html=1;rounded=0;exitX=1;exitY=1;exitDx=0;exitDy=0;strokeWidth=2;entryX=0.25;entryY=0.075;entryDx=0;entryDy=0;entryPerimeter=0;" edge="1" parent="1" source="pEMfgVXBG00LeKvRpqXS-3" target="pEMfgVXBG00LeKvRpqXS-2">
          <mxGeometry width="50" height="50" relative="1" as="geometry">
            <mxPoint x="372" y="358" as="sourcePoint" />
            <mxPoint x="270" y="535" as="targetPoint" />
          </mxGeometry>
        </mxCell>
        <mxCell id="pEMfgVXBG00LeKvRpqXS-6" value="" style="endArrow=classic;html=1;rounded=0;exitX=0.025;exitY=0.388;exitDx=0;exitDy=0;strokeWidth=2;entryX=1;entryY=0.375;entryDx=0;entryDy=0;entryPerimeter=0;exitPerimeter=0;curved=1;" edge="1" parent="1" source="pEMfgVXBG00LeKvRpqXS-2" target="pEMfgVXBG00LeKvRpqXS-1">
          <mxGeometry width="50" height="50" relative="1" as="geometry">
            <mxPoint x="382" y="368" as="sourcePoint" />
            <mxPoint x="280" y="545" as="targetPoint" />
            <Array as="points">
              <mxPoint x="400" y="520" />
            </Array>
          </mxGeometry>
        </mxCell>
        <mxCell id="pEMfgVXBG00LeKvRpqXS-7" value="" style="endArrow=classic;html=1;rounded=0;exitX=0.988;exitY=0.638;exitDx=0;exitDy=0;strokeWidth=2;entryX=0.038;entryY=0.663;entryDx=0;entryDy=0;exitPerimeter=0;entryPerimeter=0;curved=1;" edge="1" parent="1" source="pEMfgVXBG00LeKvRpqXS-1" target="pEMfgVXBG00LeKvRpqXS-2">
          <mxGeometry width="50" height="50" relative="1" as="geometry">
            <mxPoint x="280" y="572" as="sourcePoint" />
            <mxPoint x="520" y="572" as="targetPoint" />
            <Array as="points">
              <mxPoint x="410" y="600" />
            </Array>
          </mxGeometry>
        </mxCell>
      </root>
    </mxGraphModel>
  </diagram>
</mxfile>
